<svg xmlns="http://www.w3.org/2000/svg" viewBox="0 0 160 160" fill="none">
  <defs>
    <linearGradient id="bg" x1="24" y1="20" x2="132" y2="144" gradientUnits="userSpaceOnUse">
      <stop stop-color="#6F9773"/>
      <stop offset="1" stop-color="#486C50"/>
    </linearGradient>
  </defs>
  <rect x="16" y="16" width="128" height="128" rx="36" fill="url(#bg)"/>
  <path d="M50 102V56h14l23 28V56h23v46H96L73 74v28H50Z" fill="#F7F3EC"/>
  <path d="M112 41c-9 2-17 7-21 14 11 0 20-4 26-12l2-3-3 1c-1 0-2 0-4 0Z" fill="#DDE9D8"/>
  <path d="M116 49c-5 5-12 8-21 9 5 3 11 4 17 2 6-2 11-7 13-14-3 1-6 2-9 3Z" fill="#C7D9C7"/>
</svg>
